<?xml version="1.0" encoding="UTF-8"?>
<!DOCTYPE svg PUBLIC "-//W3C//DTD SVG 1.1//EN" "http://www.w3.org/Graphics/SVG/1.1/DTD/svg11.dtd">
<!-- Creator: CorelDRAW 2021.5 -->
<svg xmlns="http://www.w3.org/2000/svg" xml:space="preserve" width="158.143mm" height="100.277mm" version="1.1" style="shape-rendering:geometricPrecision; text-rendering:geometricPrecision; image-rendering:optimizeQuality; fill-rule:evenodd; clip-rule:evenodd"
viewBox="0 0 15875.21 10066.36"
 xmlns:xlink="http://www.w3.org/1999/xlink"
 xmlns:xodm="http://www.corel.com/coreldraw/odm/2003">
 <defs>
  <style type="text/css">
   <![CDATA[
    .fil11 {fill:#005583}
    .fil6 {fill:#005E8D}
    .fil13 {fill:#00608E}
    .fil12 {fill:#006090}
    .fil5 {fill:#00618D}
    .fil1 {fill:#006E9C}
    .fil2 {fill:#0072A1}
    .fil3 {fill:#008DBE}
    .fil4 {fill:#008EBE}
    .fil9 {fill:#00A0D1}
    .fil7 {fill:#00B1DE}
    .fil8 {fill:#01608B}
    .fil10 {fill:#017CAC}
    .fil0 {fill:#01ACDB}
    .fil14 {fill:#1B323C}
    .fil15 {fill:#26637A}
   ]]>
  </style>
 </defs>
 <g id="Layer_x0020_1">
  <metadata id="CorelCorpID_0Corel-Layer"/>
  <g id="_2716833260576">
   <path class="fil0" d="M1213.8 1726.42l-38.28 140.19 2110.11 -7.96c690.6,-53.53 1403.55,18.74 2100.68,-4.4 -123.3,-296.17 -742.73,-1588.36 -780.77,-1776.01l545.82 925.68c173.64,318.12 373.64,632.97 551.13,908.42 -1.1,18 -23.3,18.88 35.94,121.59l958.86 1672.41c48.97,92.51 9.33,58.4 94.3,121.17 97.1,123.14 886.21,1585.12 1171.22,2013.11 18.77,28.2 25.98,25.95 50.42,82.33 -22.19,99.76 -11.14,30.63 101.83,243.58 47.87,90.25 90.56,156.5 136.01,235.85l824.71 1432.92 4594.93 0 675.12 -1210.66c59.06,-99.84 393.34,-632.01 387.43,-728.24l11.87 -78.76c-358.49,8.69 -684.05,32.83 -1047.85,28.4 -325.82,-3.96 -747.43,-28.66 -1061.75,-9.86 -166.12,9.93 -274.39,42.45 -478.75,41.55l-1653.15 -5.4c71.3,292.81 284.01,661.74 398.97,933.59 74.53,176.22 385.61,823.68 396.48,911.77 -101.28,-255.74 -938.6,-1691.75 -1107.63,-1900.97 1.12,-18.27 23.3,-18.61 -35.94,-121.6 -25.99,-45.18 -45.42,-71.52 -70.42,-117.44l-416.06 -726.06c-82.48,-162.79 -185.9,-318.88 -273.33,-470.36 -66.79,-115.7 -203.85,-414.98 -293.37,-473.98l-143.43 -258.72c-142.31,-249.66 -908.83,-1521.78 -931.7,-1658.35 -61.63,-47.09 -20.56,-5.31 -71.81,-76.25 -27.62,-38.22 -27.54,-43.96 -48.14,-81.29 7.16,-116.42 -405.06,-746.25 -495.65,-912.16 -59.98,-109.84 -492.12,-827.58 -513.77,-920.49l-4727.73 0c-92.09,137.53 -155.45,274.77 -243.86,420.15l-680 1181.19c-62.49,110.16 -50.39,44.4 -32.44,125.08z"/>
   <path class="fil1" d="M1054.57 5737.16c21.75,121.35 4.72,49.34 60.64,153.66 279.25,520.88 668.02,1138.31 957.77,1669.75 69.28,127.07 98.95,209.94 176.8,248.15l37.69 15.43c32.32,7.47 25.91,8.62 67.55,12.14l2152.39 -1c770.25,0 1540.5,0 2310.74,0 88.1,-166.49 193.02,-317.05 283.34,-486.9l777.73 -1374.96c51.66,-79.15 42.92,-73.87 134.01,-50.48 -24.44,-56.38 -31.65,-54.13 -50.42,-82.33 -285,-427.99 -1074.11,-1889.97 -1171.22,-2013.11l-861.64 1526c-84.64,126.4 -123.09,107.27 -94.66,224.16l0.13 61.97 1332.59 101.73c239.12,17.75 324.12,-40.66 437.84,87.5 -477.59,19.05 -1674.3,-24.58 -1929.79,14.27 -193.51,-74.75 -1928.38,-26.43 -2284.18,-26.43 -50.51,-95.46 -98.61,-149.29 -150.64,-247.77l-866.86 -1523.62c-84.65,-140.9 -100.96,-116.74 -71.47,-300.18 -78.7,51.95 -16.82,-5.14 -61.62,67l-233.16 460.78c-119.98,212.8 -833.26,1407.9 -859.48,1531.22l-69.91 -50.06c-4.82,-13.28 -16.63,-10.6 -24.17,-16.9z"/>
   <path class="fil2" d="M12452.77 1811.45c-374.86,21.88 -252.06,-55.94 -387.04,-313.82 -159.27,-304.28 -282.8,-712.09 -522.28,-1154.75 -174.31,-322.2 -71.06,-191.28 -39.4,-234.95 45.43,184.07 147.16,278.67 234.68,446.68l714.03 1256.85zm-4545.52 21.21c20.61,37.33 20.53,43.08 48.14,81.29 51.25,70.94 10.18,29.16 71.81,76.25l-24.49 -97.06c240.8,-65.83 1377.9,-32.13 1763.64,-31.79 217.77,0.18 363.39,-24.01 557.18,-28.95l2047.38 -2.23c252.76,5.98 205.48,96.1 210.69,161.85 -1.2,19.56 -19.29,22.15 33.46,124.08 30.42,58.79 44.47,69.67 71.52,116.35l815.84 1415.22c57.84,113.06 115.15,141.38 115.15,283.13l589.43 -1031.5c94,-151.65 200.43,-356.9 289.97,-506.38 55.75,-93.08 94.78,-162.67 149.53,-248.9 71.76,-113.03 58.4,-215.67 166.28,-205.25 -18.95,-105.73 -195.48,-379.91 -266.8,-503.31 -44.76,-77.45 -86.35,-158.2 -132.75,-239.09l-689.42 -1196.36 -4727.74 0c-21,90.16 -67.67,145.01 -117.82,227.46 -53.17,87.4 -83.17,148.1 -136.18,235.65 -106.85,176.45 -703.41,1286.94 -834.84,1369.54z"/>
   <path class="fil3" d="M1213.8 1726.42c-86.13,54.13 -7.39,-6.15 -57.73,43.13l-1121.57 1938.29c-121.66,242.37 103.55,463.73 285.52,798.28l580.29 1013.33c59.44,99.11 79.8,193.89 154.26,217.72 7.54,6.3 19.35,3.62 24.17,16.9l69.91 50.06c26.22,-123.32 739.5,-1318.42 859.48,-1531.22l233.16 -460.78c44.79,-72.14 -17.09,-15.05 61.62,-67 82.88,-26.5 499.28,-817.93 540.03,-894.35 89.63,-168.1 183.7,-303.28 274.22,-469.46 88.74,-162.9 178.27,-324.96 274.71,-468.97 365.38,0 2177.48,-38.71 2310.61,0 -177.48,-275.45 -377.49,-590.3 -551.13,-908.42l-545.82 -925.68c38.04,187.65 657.46,1479.84 780.77,1776.01 -697.13,23.14 -1410.07,-49.13 -2100.68,4.4l-2110.11 7.96 38.28 -140.19z"/>
   <path class="fil4" d="M13617.58 3930.8c-63.95,20.46 -70.13,66.89 -127.99,164.18l-302.98 520.5c-23.33,42.81 -40.23,75.69 -65.43,120.49 -83.23,148.03 -167.25,280.52 -245.95,418.06l-184.83 321.78c-53.91,93.96 -52.75,31.24 -29.11,128.42l0.05 26.69c466.05,0 1862.28,219.16 2178.03,106.25 60.42,-32.04 401.05,-675.93 478.19,-796.84 30.71,-48.15 35.28,-63.18 67.45,-118.47l409.39 -706.13c45.32,-72.55 71.14,-136.03 80.82,-196.46l0 -111.09c-21.03,-134 -115.11,-271.6 -243.86,-483.32l-544.12 -943.25c-37,-69.37 -203.81,-420.23 -274.43,-442.83 -107.87,-10.42 -94.52,92.21 -166.28,205.25 -54.75,86.22 -93.78,155.82 -149.53,248.9 -89.54,149.48 -195.97,354.73 -289.97,506.38l-589.43 1031.5z"/>
   <path class="fil5" d="M8027.21 1990.2c22.87,136.56 789.39,1408.69 931.7,1658.35l143.43 258.72c9.95,-125.05 205.13,-397.72 267.46,-505.7 247.55,-428.89 626.24,-1144.86 874.64,-1515.79 376.17,87.64 2060.91,-15.07 2222.33,33.38 57.35,17.21 9.16,-1.12 57.8,29.04l57.04 43.82c-5.21,-65.75 42.07,-155.87 -210.69,-161.85l-2047.38 2.23c-193.79,4.94 -339.41,29.13 -557.18,28.95 -385.74,-0.34 -1522.84,-34.04 -1763.64,31.79l24.49 97.06z"/>
   <path class="fil6" d="M3471.55 4063.73c0,1154.82 983.28,1142.1 1752.98,1142.1l0 -1434.26c-1132.12,0 -876.49,-34.08 -876.49,159.36 0,106.08 -16.48,41.25 -19.04,146.54 -1.27,52.43 2.33,73.9 19.04,145.62l424.96 0 0 557.77c-423.19,0 -823.37,-184.1 -823.37,-610.9 0,-242.12 -23.44,-438.26 167.74,-629.07 238.82,-238.35 692.41,-151.98 977.72,-164.36 180.9,-7.85 129.43,-41.21 129.43,-454.91 -105.52,-8.77 -63.98,-26.55 -132.8,-26.55 -120.43,0 23.07,19.01 -119.49,17.64 -53.66,-0.51 -44.35,-9.26 -110.87,-3.31 -315.31,28.22 -587.46,10.59 -894.29,189.04 -297.27,172.87 -495.53,505.8 -495.53,965.29z"/>
   <path class="fil7" d="M11067.8 3894.63c31.25,-37.8 28.22,-126.26 28.09,-174.09 -0.19,-71.37 -1.53,-143 -1.53,-214.57 429.72,0 670.4,190.11 680.44,587.41 10.41,411.54 -255.65,607.8 -680.44,607.8l0 -424.96 -398.41 0c0,204.64 -0.1,408.7 -2.33,613.22 -1.73,157.62 -71.28,221.39 425.98,182.27 156.74,-12.34 386.35,-52.32 505.98,-104.91 86.27,-37.94 134.91,-50.46 206.53,-112.19 63.3,-54.55 113.02,-89.3 161.34,-157.38 269.91,-380.38 235.34,-1087.92 -162.12,-1370.46 -100.93,-71.75 -313.22,-200.73 -471.37,-139.65 -192.38,-35.53 -435.36,-54.78 -630.84,-23.43l1.13 740.51 337.55 -9.57z"/>
   <path class="fil6" d="M3710.6 8711.79c136.28,0 292.47,65.42 364.26,140.38 219.29,228.99 258.08,975.15 -390.82,975.15 -607.46,0 -639.79,-1115.53 26.56,-1115.53zm-398.41 1354.57l770.25 0c250.95,0 504.65,-483.76 504.65,-770.25 0,-1136.58 -1504.03,-1240.21 -1715.15,-254.31 -127.01,593.17 288.97,1024.55 440.25,1024.55z"/>
   <path class="fil6" d="M2568.5 9062.27l-671.68 -19.77 1.25 321.01 329.18 6.09 19.08 377.99c3.12,206.87 7.27,33.82 -49.68,106.14 -167.24,-64.6 -370.71,-33.38 -536.6,-260.08 -50.66,-69.26 -337.36,-861.25 535.97,-855.95 393.15,2.39 475.24,69.89 372.47,-371.22 -429.33,0 -675.18,-10.48 -965.14,150.39 -130.22,72.25 -212.56,149.68 -286.57,271.2 -179.04,293.91 -189.29,920.81 210.84,1203.6 57.03,40.3 156.09,62.8 273.4,74.67l794.03 0c0,-168.22 0,-336.43 0,-504.65 0,-88.74 -0.43,-177.5 0.53,-266.23 0.9,-83.91 12.24,-178.94 -27.09,-233.21z"/>
   <path class="fil8" d="M6127.58 9110.18l371.85 0 0 -398.4c169.02,14.06 340.22,60.56 452.03,132.3 185.03,118.7 284.39,596.63 21.06,845.44 -115.15,108.8 -311.82,134.21 -473.09,137.8 0,-476.73 76.51,-398.41 -371.85,-398.41l0 637.45 849.93 0c347.04,0 692.15,-626.44 456.85,-1200.55 -94.59,-230.81 -297.55,-381.03 -535.19,-447.54 -223.2,-62.47 -527.31,-51.77 -771.6,-51.77l0 743.69z"/>
   <path class="fil9" d="M8597.7 8499.3c0,725.43 -95.6,610.89 371.84,610.89l0 -398.4c164.04,13.64 368.17,55.16 471.47,139.42 112.69,91.92 194.67,253.47 184.95,439.39 -16.32,312.72 -163,470.28 -442.24,513.71 -247.17,38.45 -214.18,85.46 -214.18,-375.39 -469.4,0 -371.84,-118.84 -371.84,637.45l801.68 0c107.02,-12.81 197.25,-37.47 258.11,-82.3 73.04,-53.8 118.65,-90.58 173.75,-171.54 244.56,-359.44 206.46,-1069.06 -231.98,-1305.49 -286.16,-154.3 -554.08,-140.53 -975,-140.53 -13.87,59.57 -26.55,61.06 -26.55,132.8z"/>
   <path class="fil9" d="M10270.99 10066.36l849.92 0 0 -239.04 -369.86 -4.31c-168.91,0.66 -134.78,23.56 -134.78,-394.1l717.12 0c0,-236.27 62.05,-78.95 0,-345.29l-717.12 0 0 -371.84 504.64 0 0 -345.29 -849.92 0 0 1699.86z"/>
   <path class="fil9" d="M13166.06 8871.15c0,221.83 56.18,390.76 302.29,494.51 170.8,72.01 467.96,31.6 467.96,249.18 0,260.32 -239.04,137.9 -239.04,292.16l0 159.36 315.62 0c72.22,-9.96 120.46,-39.95 174.93,-120.33 181.57,-267.89 113.88,-637.76 -181.73,-799.38 -207.2,-113.3 -468.19,13.61 -468.19,-248.95 0,-152.65 159.1,-185.91 159.36,-185.91 255.59,0 194.04,212.48 318.72,212.48 245.99,0 265.6,23.61 265.6,-106.24 0,-223.54 -292.6,-451.52 -531.2,-451.52 -294.7,0 -584.33,219.83 -584.33,504.65z"/>
   <path class="fil9" d="M12236.45 10066.36c194.32,0 152.26,-23.51 250.36,-280.85l295.95 -766.46c150.48,-373.36 196.49,-333.82 -174.46,-333.82 -114.82,0 -140.09,172.74 -175.81,275.72l-116.36 335.17c-53.93,-77.6 -141.76,-367.34 -178.14,-459.31 -33.65,-85.1 -56.42,-157.81 -84.11,-234.6 -33.33,-92.41 -59.31,-133.88 -83.03,-235.7 -363.43,0 -421.72,-71.6 -299.92,219.79l565.52 1480.06z"/>
   <path class="fil10" d="M10191.45 5816.71c169.03,209.22 1006.35,1645.23 1107.63,1900.97 -10.87,-88.09 -321.96,-735.55 -396.48,-911.77 -114.96,-271.84 -327.67,-640.77 -398.97,-933.59l1653.15 5.4c204.35,0.9 312.63,-31.62 478.75,-41.55 314.32,-18.8 735.93,5.9 1061.75,9.86 363.81,4.43 689.37,-19.71 1047.85,-28.4l-11.87 78.76c68.33,-42.95 27.91,0.71 69.08,-63.59 33.03,-51.58 20.7,-46.55 37.03,-95.64 -315.75,112.91 -1711.98,-106.25 -2178.03,-106.25l-0.05 -26.69c-108.12,47.46 -39.98,-8.13 -100.36,87.36 -18.65,29.48 -41.8,92.87 -58.87,125.13l-2310.61 0z"/>
   <polygon class="fil8" points="4879.25,9508.59 5224.53,9508.59 5224.53,8366.5 4879.25,8366.5 "/>
   <path class="fil11" d="M5676.06 5843.14c255.49,-38.86 1452.2,4.78 1929.79,-14.27 -113.72,-128.15 -198.72,-69.75 -437.84,-87.5l-1332.59 -101.73 -0.13 -61.97c-84.05,52.81 -8.19,-4.2 -57.81,42.78 -27.98,26.5 -33.48,32.18 -50.52,61.23 -31.09,52.97 -38.26,81.39 -50.9,161.46z"/>
   <path class="fil12" d="M12452.77 1811.45l-714.03 -1256.85c-87.53,-168.01 -189.25,-262.61 -234.68,-446.68 -31.66,43.67 -134.91,-87.25 39.4,234.95 239.48,442.66 363,850.48 522.28,1154.75 134.98,257.87 12.18,335.7 387.04,313.82z"/>
   <polygon class="fil13" points="5012.06,9827.32 4879.25,9827.32 4879.25,10066.36 5888.54,10066.36 5888.54,9827.32 "/>
   <path class="fil8" d="M3630.91 9455.47c399.37,0 319.95,-345.29 53.12,-345.29l-53.12 0c-120.79,180.39 -142.21,132.91 0,345.29z"/>
   <path class="fil14" d="M2196.67 9853.74c56.95,-72.32 52.8,100.74 49.68,-106.14l-19.08 -377.99 -329.18 -6.09 -1.25 -321.01 671.68 19.77c-37.45,-53.64 -13.01,-18.83 -156.43,-34.89l-376.22 -24.89c-213.44,0.63 -157.91,4.9 -157.91,399.86l318.72 0 0 451.39z"/>
   <path class="fil15" d="M11067.8 3894.63l-337.55 9.57 -1.13 -740.51c195.48,-31.35 438.46,-12.1 630.84,23.43 -41.12,-98.21 23.88,-23.68 -54.91,-49.41l-609.1 -3.58 0 796.81c62.14,0 124.22,-0.27 186.34,0.57 12.95,0.17 101.19,1.93 106.97,0.99 71.72,-11.51 40.84,-5.17 78.54,-37.87z"/>
  </g>
 </g>
</svg>
